<svg width="32" height="32" fill="none" xmlns="http://www.w3.org/2000/svg"><path d="M30.794 22.083c3.36-8.171-.54-17.518-8.711-20.877-8.171-3.36-17.518.54-20.877 8.711-3.36 8.171.54 17.518 8.711 20.877 8.171 3.36 17.518-.54 20.877-8.711z" fill="#16A478"/><path fill-rule="evenodd" clip-rule="evenodd" d="M10.988 4.24l-.66-.28a1.153 1.153 0 00-1.528.572l-.419.994a9.292 9.292 0 001.524 9.427s.219.255.562.636l.223.223c-.31-.008-.62.01-.929.051a5.677 5.677 0 00-4.562 3.42l-.21.506a1.282 1.282 0 00.707 1.659l.511.218a6.082 6.082 0 006.379-.892s2.197-1.714 3.35-6.43c1.221-3.963-.892-8.363-4.948-10.105zm16.86 6.94l.664.265a1.147 1.147 0 01.692 1.496l-.404.999a9.26 9.26 0 01-7.721 5.612s-.335.056-.85.056h-.316c.231.214.444.447.636.697a5.691 5.691 0 01.841 5.64l-.209.51a1.287 1.287 0 01-1.672.68l-.52-.205a6.096 6.096 0 01-3.908-5.11s-.358-2.742 2.142-6.923c1.919-3.694 6.518-5.334 10.625-3.717z" fill="#FECA0D"/><path fill-rule="evenodd" clip-rule="evenodd" d="M10.454 15.585l.167.171.056.051c.887-.097 2.118-.404 2.322-1.305 0 0-6.61-2.783-4.752-8.702a9.222 9.222 0 002.207 9.785zm9.78 4.023h-.243l-.074.005c-.562-.707-1.222-1.78-.734-2.565 0 0 6.662 2.676 9.501-2.843a9.227 9.227 0 01-8.45 5.403zm-5.163 2.049v.144c.045.474.144.942.298 1.394v.023c.08.229.174.452.283.669.037.081.078.16.126.237a5.637 5.637 0 00.604.896c.177.22.37.426.576.618.107.098.214.19.325.279.221.183.456.349.701.497.32.206.655.385 1.004.534l.52.205.117.037h.636c-5.872-2.119-4.246-9.431-3.916-10.686-1.287 2.732-1.301 4.623-1.273 5.153zm-2.42-.953l.033-.032c.39-.358 1.71-1.71 2.838-4.567-.655 1.129-4.64 7.47-10.304 4.846a.223.223 0 00.029.036c.016.018.031.035.031.052l.028.028.051.055.028.028.07.07.088.07h.028l.074.046h.033l.107.051.51.219c.337.145.685.261 1.041.348.28.064.564.111.85.14l.423.027c.283.01.565 0 .846-.032l.288-.037c.262-.042.52-.1.776-.172l.255-.084a5.715 5.715 0 001.877-1.069v-.023z" fill="#F0B103"/></svg>